<svg xmlns="http://www.w3.org/2000/svg" width="341.333" height="341.333" version="1" viewBox="0 0 256 256"><path d="M0 128v128h256V0H0v128zm98.3-91.3l16.1 5.7 29-5.8c30.7-6 32.1-6.2 33.1-4.6.4.6 5.5 17.1 11.4 36.8l10.7 35.7-35.3.3c-19.4.1-51.2.1-70.6 0l-35.3-.3L68 69c5.8-19.5 10.9-36.1 11.3-36.8.5-.6 1.3-1.2 1.8-1.2.6 0 8.3 2.6 17.2 5.7zm70.7 87.7c22.2 3.6 46.9 10.7 62.5 18.1l7 3.3h-221l7-3.3c16.2-7.7 41.9-15 63-17.9 6.1-.9 12.4-1.7 14-2 7.9-1.1 57.5.2 67.5 1.8zm-76.2 34.2c9.9 3.2 19.9 13.4 22.3 22.8l1 4.1h12c9.9 0 11.9-.3 11.9-1.5 0-3.2 5.3-12.7 9.3-16.8 6.6-6.8 12.6-9.5 22.8-10 7.2-.4 9.4-.1 13.5 1.7 7.6 3.4 12 6.8 15.8 12.4 12.3 17.9 5.7 41.2-14.3 50.6-8 3.7-19.2 3.7-27.2 0-9.8-4.6-17.4-13.5-19.4-22.7-.8-3.8-3-4.6-12.5-4.6-8.3 0-12 .9-12 3.2 0 4-5.9 13.9-10.9 18.4-7.4 6.7-14.4 9.1-24.6 8.6-10.1-.6-16.2-3.5-23.3-11.2-19.6-21.5-4.3-56.2 24.9-56.5 3.1-.1 7.9.6 10.7 1.5z"/><path d="M169 166c-16.4 2.9-25.5 21.3-17.9 36.1 2.4 4.9 9.9 11.3 14.7 12.7 15.4 4.6 31-5.6 32.9-21.6 1.9-16.1-13.4-30.1-29.7-27.2zM74.8 167c-12.2 3.7-19.7 16.8-16.9 29.5 5.6 25 41.5 26.2 48.7 1.7 3.8-12.8-3.2-26.3-15.7-30.7-4.5-1.6-11.7-1.8-16.1-.5z"/></svg>